<svg xmlns="http://www.w3.org/2000/svg" version="1.1" xmlns:xlink="http://www.w3.org/1999/xlink" xmlns:svgjs="http://svgjs.dev/svgjs" viewBox="0 0 800 800" opacity="1"><defs><linearGradient x1="50%" y1="0%" x2="50%" y2="100%" id="cccoil-grad"><stop stop-color="hsl(347, 51%, 67%)" stop-opacity="1" offset="0%"></stop><stop stop-color="hsl(179, 72%, 46%)" stop-opacity="1" offset="100%"></stop></linearGradient></defs><g stroke="url(#cccoil-grad)" fill="none" stroke-linecap="round"><circle r="237.5" cx="400" cy="400" stroke-width="13" stroke-dasharray="0 1492"></circle><circle r="225" cx="400" cy="400" stroke-width="13" stroke-dasharray="61 1414" transform="rotate(20, 400, 400)"></circle><circle r="212.5" cx="400" cy="400" stroke-width="13" stroke-dasharray="116 1335" transform="rotate(40, 400, 400)"></circle><circle r="200" cx="400" cy="400" stroke-width="13" stroke-dasharray="163 1257" transform="rotate(60, 400, 400)"></circle><circle r="187.5" cx="400" cy="400" stroke-width="13" stroke-dasharray="204 1178" transform="rotate(80, 400, 400)"></circle><circle r="175" cx="400" cy="400" stroke-width="13" stroke-dasharray="238 1100" transform="rotate(100, 400, 400)"></circle><circle r="162.5" cx="400" cy="400" stroke-width="13" stroke-dasharray="265 1021" transform="rotate(120, 400, 400)"></circle><circle r="150" cx="400" cy="400" stroke-width="13" stroke-dasharray="286 942" transform="rotate(140, 400, 400)"></circle><circle r="137.5" cx="400" cy="400" stroke-width="13" stroke-dasharray="299 864" transform="rotate(160, 400, 400)"></circle><circle r="125" cx="400" cy="400" stroke-width="13" stroke-dasharray="306 785" transform="rotate(180, 400, 400)"></circle><circle r="112.5" cx="400" cy="400" stroke-width="13" stroke-dasharray="306 707" transform="rotate(200, 400, 400)"></circle><circle r="100" cx="400" cy="400" stroke-width="13" stroke-dasharray="299 628" transform="rotate(220, 400, 400)"></circle><circle r="87.5" cx="400" cy="400" stroke-width="13" stroke-dasharray="286 550" transform="rotate(240, 400, 400)"></circle><circle r="75" cx="400" cy="400" stroke-width="13" stroke-dasharray="265 471" transform="rotate(260, 400, 400)"></circle><circle r="62.5" cx="400" cy="400" stroke-width="13" stroke-dasharray="238 393" transform="rotate(280, 400, 400)"></circle><circle r="50" cx="400" cy="400" stroke-width="13" stroke-dasharray="204 314" transform="rotate(300, 400, 400)"></circle><circle r="37.5" cx="400" cy="400" stroke-width="13" stroke-dasharray="163 236" transform="rotate(320, 400, 400)"></circle><circle r="25" cx="400" cy="400" stroke-width="13" stroke-dasharray="116 157" transform="rotate(340, 400, 400)"></circle><circle r="12.5" cx="400" cy="400" stroke-width="13" stroke-dasharray="61 79" transform="rotate(360, 400, 400)"></circle></g></svg>